@startuml
class Post {
    - id: int
    - header: string
    - title: string
    - author: string
    - image: string
    - body: text
    - date: date
    +__construct
    + getPassedDays(): int
    + getId(): int
    + setId(id: int): void
    + getTitle(): string
    + setTitle(title: string): void
    + getHeader(): string
    + setHeader(header: string): void
    + getAuthor(): string
    + setAuthor(author: string): void
    + getImage(): string
    + setImage(image: string): void
    + getBody(): text
    + setBody(body: text): void
    + getDate(): date
    + setDate(date: date): void
}

class PostManager {
    - posts: Post[]
    + getPosts(): Post[]
    + addPost(post: Post): void
    + getPostsFromDb(): void
}

class Model {
    {static} - pdo: PDO
    {static} + setBdd(): void
    + getBdd(): PDO
}

PostManager "1" o-- "*" Post : contains
PostManager <|-- Model : uses
@enduml